<svg width="156" height="48" viewBox="0 0 156 48" fill="none" xmlns="http://www.w3.org/2000/svg">
<g clip-path="url(#clip0_134_5506)">
<path d="M44.3347 0H20.0039C17.6716 0.0331925 15.4461 0.982987 13.8085 2.64403C12.171 4.30507 11.2529 6.54388 11.2529 8.8764C11.2529 11.2089 12.171 13.4477 13.8085 15.1088C15.4461 16.7698 17.6716 17.7196 20.0039 17.7528H44.3347C46.667 17.7196 48.8925 16.7698 50.5301 15.1088C52.1676 13.4477 53.0857 11.2089 53.0857 8.8764C53.0857 6.54388 52.1676 4.30507 50.5301 2.64403C48.8925 0.982987 46.667 0.0331925 44.3347 0ZM21.2066 13.1524C20.3604 13.1534 19.5329 12.9035 18.8289 12.4341C18.1248 11.9647 17.5758 11.297 17.2513 10.5155C16.9268 9.73401 16.8414 8.87381 17.006 8.04378C17.1706 7.21375 17.5777 6.45119 18.1757 5.85259C18.7738 5.25399 19.5361 4.84627 20.366 4.68101C21.1958 4.51575 22.0561 4.60039 22.8379 4.92421C23.6197 5.24803 24.2878 5.79648 24.7578 6.50016C25.2277 7.20384 25.4784 8.03112 25.4781 8.8773C25.4771 10.0102 25.0269 11.0965 24.2261 11.8979C23.4254 12.6993 22.3395 13.1505 21.2066 13.1524ZM43.1392 13.1524C42.293 13.1534 41.4655 12.9035 40.7614 12.4341C40.0574 11.9647 39.5083 11.297 39.1839 10.5155C38.8594 9.73401 38.774 8.87381 38.9386 8.04378C39.1031 7.21375 39.5102 6.45119 40.1083 5.85259C40.7064 5.25399 41.4686 4.84627 42.2985 4.68101C43.1284 4.51575 43.9887 4.60039 44.7705 4.92421C45.5522 5.24803 46.2204 5.79648 46.6904 6.50016C47.1603 7.20384 47.411 8.03112 47.4106 8.8773C47.4097 10.0114 46.9585 11.0988 46.1562 11.9004C45.3539 12.7021 44.2661 13.1524 43.132 13.1524H43.1392Z" fill="#006699"/>
<path d="M19.3281 37.6992C19.977 40.6213 21.6031 43.2347 23.9378 45.1078C26.2725 46.9809 29.1762 48.0018 32.1695 48.0018C35.1627 48.0018 38.0665 46.9809 40.4012 45.1078C42.7359 43.2347 44.3619 40.6213 45.0108 37.6992H19.3281Z" fill="#006699"/>
<path d="M62.0081 29.1205C61.5384 29.8178 60.8573 30.3458 60.065 30.6269C59.2726 30.9079 58.411 30.9271 57.6069 30.6815C56.8029 30.436 56.0989 29.9388 55.5987 29.263C55.0985 28.5873 54.8286 27.7688 54.8286 26.9281C54.8286 26.0874 55.0985 25.2689 55.5987 24.5932C56.0989 23.9175 56.8029 23.4203 57.6069 23.1747C58.411 22.9292 59.2726 22.9484 60.065 23.2294C60.8573 23.5104 61.5384 24.0385 62.0081 24.7358L64.3308 22.5048C63.9899 22.074 63.6002 21.6843 63.1694 21.3434L61.5371 22.1182C61.1091 21.872 60.6511 21.6823 60.1744 21.5538L59.5685 19.8495C59.022 19.7872 58.4701 19.7872 57.9236 19.8495L57.3178 21.5538C56.8416 21.6823 56.3842 21.8721 55.9569 22.1182L54.3227 21.3434C53.8919 21.6843 53.5022 22.074 53.1613 22.5048L53.9362 24.1389C53.7797 24.4119 53.645 24.6968 53.5335 24.9911V24.9551H45.3214V20.3852H19.0166V24.9551H10.7991V24.9911C10.6868 24.6971 10.5522 24.4123 10.3964 24.1389L11.1712 22.5048C10.8304 22.074 10.4406 21.6843 10.0099 21.3434L8.37573 22.1182C7.94792 21.8717 7.48984 21.682 7.01303 21.5538L6.40719 19.8495C5.86125 19.7872 5.30999 19.7872 4.76404 19.8495L4.1582 21.5538C3.68151 21.6823 3.22347 21.872 2.79551 22.1182L1.16315 21.3434C0.731404 21.6838 0.341027 22.0735 0 22.5048L2.33708 24.7358C2.80678 24.0379 3.48819 23.5094 4.28093 23.228C5.07367 22.9466 5.93581 22.9273 6.74037 23.1728C7.54493 23.4184 8.24935 23.9158 8.74988 24.5919C9.25041 25.268 9.52057 26.0869 9.52057 26.9281C9.52057 27.7693 9.25041 28.5883 8.74988 29.2644C8.24935 29.9404 7.54493 30.4379 6.74037 30.6834C5.93581 30.929 5.07367 30.9096 4.28093 30.6283C3.48819 30.3469 2.80678 29.8183 2.33708 29.1205L0 31.3515C0.34052 31.7837 0.730945 32.1741 1.16315 32.5146L2.79551 31.7308C3.22272 31.9785 3.68097 32.1684 4.1582 32.2953L4.76404 33.9996C5.30999 34.0619 5.86125 34.0619 6.40719 33.9996L7.01303 32.2953C7.49037 32.1687 7.94866 31.9788 8.37573 31.7308L10.0099 32.5075C10.4411 32.1664 10.8309 31.7761 11.1712 31.3443L10.3964 29.712C10.5519 29.4384 10.6865 29.1536 10.7991 28.8598V28.894H19.0166V34.8409C19.0166 35.1376 19.0274 35.4306 19.0472 35.7218H45.2944C45.3124 35.4306 45.3249 35.1376 45.3249 34.8409V28.9012H53.5425V28.867C53.6544 29.1611 53.789 29.446 53.9452 29.7191L53.1631 31.3515C53.5035 31.7833 53.8933 32.1736 54.3245 32.5146L55.9586 31.738C56.3852 31.9857 56.8429 32.1755 57.3195 32.3025L57.9254 34.0068C58.4719 34.0691 59.0238 34.0691 59.5703 34.0068L60.1762 32.3025C60.6534 32.1756 61.1117 31.9857 61.5389 31.738L63.1712 32.5146C63.6025 32.1736 63.9922 31.7833 64.3326 31.3515L62.0081 29.1205ZM35.5811 28.9012C35.2346 29.5003 34.7365 29.9977 34.137 30.3435C33.5375 30.6893 32.8575 30.8713 32.1654 30.8713C31.4733 30.8713 30.7933 30.6893 30.1938 30.3435C29.5943 29.9977 29.0962 29.5003 28.7497 28.9012C28.4042 28.301 28.2224 27.6206 28.2224 26.9281C28.2224 26.2356 28.4042 25.5553 28.7497 24.9551C29.311 24.1284 30.1644 23.5448 31.1384 23.3216C32.1124 23.0984 33.1348 23.2521 34.0001 23.7519C34.8653 24.2517 35.5094 25.0606 35.8027 26.0158C36.096 26.971 36.0168 28.0019 35.5811 28.9012Z" fill="#006699"/>
<path d="M34.4668 26.9293C34.4653 27.4369 34.2958 27.9297 33.9849 28.3309C33.6739 28.7321 33.2389 29.0192 32.7478 29.1473C32.2566 29.2754 31.7368 29.2373 31.2695 29.0391C30.8022 28.8409 30.4137 28.4936 30.1644 28.0514C29.9152 27.6092 29.8193 27.0969 29.8917 26.5945C29.964 26.0921 30.2006 25.6277 30.5646 25.2739C30.9285 24.92 31.3993 24.6965 31.9036 24.6382C32.4078 24.58 32.9172 24.6902 33.3522 24.9518C33.6933 25.1566 33.9754 25.4466 34.1708 25.7932C34.3662 26.1399 34.4682 26.5314 34.4668 26.9293Z" fill="#006699"/>
<path d="M89.5968 17.1355H75.4144C75.9717 20.0676 78.2728 21.9247 81.4656 21.9247C83.9159 21.9247 85.809 21.1445 87.5906 19.9202V23.4456C86.0319 24.598 83.8045 25.3027 81.2804 25.3027C75.3784 25.3027 71.8135 20.9216 71.8135 15.7243C71.8135 10.5647 75.4521 6.18359 80.9083 6.18359C86.7007 6.18359 90.0049 11.2694 89.5968 17.1355ZM75.4557 14.2393H85.924C85.4045 11.5301 83.5115 9.67303 80.8382 9.67303C78.0139 9.67303 76.0094 11.5661 75.4557 14.2393Z" fill="#006699"/>
<path d="M109.048 6.44531L101.365 24.0633C101.232 24.3673 101.013 24.6261 100.736 24.8078C100.458 24.9895 100.134 25.0862 99.8023 25.0862C99.4718 25.0862 99.1484 24.99 98.8716 24.8093C98.5948 24.6286 98.3766 24.3713 98.2436 24.0687L90.4863 6.45071H92.0899C92.736 6.45058 93.3674 6.64265 93.904 7.00248C94.4405 7.36231 94.8579 7.87363 95.103 8.47138L99.8041 19.9267L104.478 8.47857C104.723 7.87905 105.14 7.36596 105.677 7.00477C106.215 6.64358 106.847 6.45068 107.495 6.45071L109.048 6.44531Z" fill="#006699"/>
<path d="M110.014 15.7309C110.014 10.5714 113.875 6.1543 119.481 6.1543C125.086 6.1543 128.948 10.5714 128.948 15.7309C128.948 20.8905 125.086 25.3094 119.481 25.3094C113.875 25.3094 110.014 20.8869 110.014 15.7309ZM125.347 15.695C125.347 12.4267 123.044 9.64374 119.481 9.64374C115.991 9.64374 113.579 12.4267 113.579 15.695C113.579 18.9974 115.991 21.8199 119.481 21.8199C123.044 21.8145 125.347 18.992 125.347 15.6896V15.695Z" fill="#006699"/>
<path d="M80.086 39.4242L78.9499 34.1604L76.6505 39.5195H76.4995L74.2362 34.2197L73.1701 39.4242H72.0195L73.8263 31.0898H73.9899L76.5804 37.3262L79.1602 31.0898H79.3238L81.2078 39.4242H80.086Z" fill="#006699"/>
<path d="M88.2591 33.5632V39.4239H87.1571V38.4873C86.9288 38.8051 86.6276 39.0635 86.2789 39.2409C85.9301 39.4182 85.5438 39.5094 85.1526 39.5066C83.522 39.5066 82.4092 38.1817 82.4092 36.4936C82.4092 34.8055 83.522 33.4805 85.1526 33.4805C85.5438 33.4778 85.9301 33.5689 86.2789 33.7463C86.6276 33.9236 86.9288 34.182 87.1571 34.4999V33.5632H88.2591ZM87.1571 36.4936C87.1571 35.4617 86.3948 34.5592 85.3395 34.5592C84.2842 34.5592 83.5418 35.4275 83.5418 36.4936C83.5418 37.5596 84.2806 38.4405 85.3395 38.4405C86.3984 38.4405 87.1571 37.5255 87.1571 36.4936Z" fill="#006699"/>
<path d="M95.657 36.062V39.4256H94.555V36.2256C94.555 35.0642 93.9564 34.4548 93.1168 34.4548C92.2773 34.4548 91.6876 35.0642 91.6876 36.2256V39.4256H90.5928V33.5649H91.6948V34.3847C91.8831 34.088 92.1454 33.8455 92.4559 33.681C92.7664 33.5164 93.1144 33.4355 93.4656 33.4463C94.6143 33.4463 95.657 34.3146 95.657 36.062Z" fill="#006699"/>
<path d="M102.878 33.5645V39.4251H101.776V38.6053C101.588 38.902 101.326 39.1446 101.016 39.3091C100.705 39.4737 100.358 39.5545 100.007 39.5438C98.858 39.5438 97.8135 38.6755 97.8135 36.928V33.5645H98.9155V36.7645C98.9155 37.9258 99.5142 38.5352 100.354 38.5352C101.193 38.5352 101.783 37.9258 101.783 36.7645V33.5645H102.878Z" fill="#006699"/>
<path d="M106.557 31.7001V33.5643H107.752V34.6196H106.557V39.425H105.442V34.6196H104.692V33.5643H105.442V31.4304C105.442 30.5153 105.935 29.9922 106.733 29.9922C107.087 29.9979 107.435 30.082 107.752 30.2385V31.3621C107.532 31.2388 107.285 31.1709 107.033 31.1643C106.749 31.1607 106.557 31.3369 106.557 31.7001Z" fill="#006699"/>
<path d="M114.626 33.5632V39.4239H113.524V38.4873C113.296 38.8052 112.995 39.0637 112.646 39.2411C112.297 39.4184 111.911 39.5095 111.52 39.5066C109.891 39.5066 108.776 38.1817 108.776 36.4936C108.776 34.8055 109.891 33.4805 111.52 33.4805C111.911 33.4776 112.297 33.5687 112.646 33.7461C112.995 33.9234 113.296 34.1819 113.524 34.4999V33.5632H114.626ZM113.524 36.4936C113.524 35.4617 112.762 34.5592 111.707 34.5592C110.651 34.5592 109.909 35.4275 109.909 36.4936C109.909 37.5596 110.648 38.4405 111.707 38.4405C112.766 38.4405 113.524 37.5255 113.524 36.4936Z" fill="#006699"/>
<path d="M116.597 36.495C116.597 34.8644 117.769 33.4694 119.586 33.4694C120.246 33.441 120.894 33.6488 121.415 34.0554V35.3264C121.193 35.087 120.925 34.8959 120.627 34.765C120.328 34.6342 120.006 34.5664 119.68 34.566C119.422 34.5581 119.166 34.602 118.926 34.6951C118.686 34.7882 118.467 34.9285 118.282 35.1079C118.097 35.2872 117.95 35.5018 117.85 35.739C117.749 35.9762 117.697 36.2311 117.697 36.4887C117.697 36.7462 117.749 37.0012 117.85 37.2384C117.95 37.4756 118.097 37.6902 118.282 37.8695C118.467 38.0488 118.686 38.1892 118.926 38.2823C119.166 38.3753 119.422 38.4192 119.68 38.4114C120.006 38.4106 120.328 38.3425 120.627 38.2114C120.925 38.0802 121.194 37.8888 121.415 37.6491V38.9255C120.895 39.3335 120.246 39.542 119.586 39.5134C117.769 39.5206 116.597 38.1237 116.597 36.495Z" fill="#006699"/>
<path d="M126.023 34.6187H124.816V39.4241H123.714V34.6187H122.963V33.5634H123.714V31.9922H124.816V33.5634H126.023V34.6187Z" fill="#006699"/>
<path d="M132.636 33.5645V39.4251H131.534V38.6053C131.346 38.9019 131.084 39.1443 130.773 39.3088C130.463 39.4734 130.115 39.5543 129.764 39.5438C128.615 39.5438 127.57 38.6755 127.57 36.928V33.5645H128.669V36.7645C128.669 37.9258 129.267 38.5352 130.107 38.5352C130.946 38.5352 131.545 37.9258 131.545 36.7645V33.5645H132.636Z" fill="#006699"/>
<path d="M137.76 33.4453V34.7469C136.928 34.6067 136.07 35.0525 136.07 36.3181L136.059 36.2714V39.4246H134.961V33.564H136.063V34.5725C136.376 33.9739 136.974 33.4453 137.76 33.4453Z" fill="#006699"/>
<path d="M139.388 31.6997C139.391 31.5514 139.436 31.4072 139.52 31.285C139.604 31.1628 139.723 31.0681 139.86 31.013C139.998 30.9578 140.149 30.9446 140.294 30.9749C140.439 31.0052 140.572 31.0778 140.676 31.1835C140.78 31.2892 140.85 31.4233 140.878 31.5689C140.906 31.7145 140.89 31.865 140.833 32.0017C140.775 32.1383 140.678 32.255 140.555 32.3368C140.431 32.4187 140.286 32.4622 140.138 32.4619C140.038 32.4647 139.938 32.4468 139.845 32.4094C139.752 32.3719 139.668 32.3156 139.597 32.2441C139.527 32.1726 139.472 32.0873 139.436 31.9936C139.4 31.9 139.384 31.7999 139.388 31.6997ZM139.588 33.5639H140.69V39.4246H139.588V33.5639Z" fill="#006699"/>
<path d="M148.288 36.062V39.4256H147.186V36.2256C147.186 35.0642 146.587 34.4548 145.747 34.4548C144.908 34.4548 144.318 35.0642 144.318 36.2256V39.4256H143.23V33.5649H144.332V34.3847C144.52 34.0881 144.782 33.8455 145.093 33.6809C145.403 33.5164 145.75 33.4355 146.101 33.4463C147.245 33.4463 148.288 34.3146 148.288 36.062Z" fill="#006699"/>
<path d="M155.944 39.1777C155.944 40.9755 154.549 41.851 153.153 41.851C152.368 41.8485 151.598 41.6342 150.925 41.2307L150.938 40.0694C151.548 40.5193 152.278 40.7766 153.036 40.8083C154.114 40.8083 154.866 40.1988 154.866 38.8973V38.4514C154.639 38.7794 154.336 39.047 153.982 39.2309C153.628 39.4148 153.235 39.5095 152.836 39.5067C151.207 39.5067 150.093 38.1818 150.093 36.4937C150.093 34.8056 151.207 33.4806 152.836 33.4806C153.229 33.476 153.618 33.5676 153.967 33.7474C154.317 33.9273 154.618 34.19 154.842 34.5125V33.5633H155.932L155.944 39.1777ZM154.842 36.4937C154.842 35.4618 154.08 34.5593 153.025 34.5593C151.97 34.5593 151.227 35.4276 151.227 36.4937C151.227 37.5597 151.966 38.4406 153.025 38.4406C154.084 38.4406 154.842 37.5256 154.842 36.4937Z" fill="#006699"/>
</g>
<defs>
<clipPath id="clip0_134_5506">
<rect width="155.942" height="48" fill="white"/>
</clipPath>
</defs>
</svg>
